<svg width="32" height="30" viewBox="0 0 32 30" fill="none" xmlns="http://www.w3.org/2000/svg">
<rect width="32" height="30" rx="2" fill="#FFBE3F"/>
<path d="M17.0293 13.9706C16.4833 13.4248 15.7428 13.1182 14.9707 13.1182C14.1986 13.1182 13.4581 13.4248 12.912 13.9706L10.8527 16.0293C10.3066 16.5754 9.9998 17.316 9.9998 18.0883C9.9998 18.8606 10.3066 19.6012 10.8527 20.1473C11.3987 20.6934 12.1394 21.0002 12.9117 21.0002C13.6839 21.0002 14.4246 20.6934 14.9707 20.1473L16 19.118" stroke="white" stroke-width="2" stroke-linecap="round" stroke-linejoin="round"/>
<path d="M14.9707 16.0293C15.5167 16.5751 16.2572 16.8818 17.0293 16.8818C17.8014 16.8818 18.5419 16.5751 19.088 16.0293L21.1473 13.9706C21.6934 13.4245 22.0002 12.6839 22.0002 11.9116C22.0002 11.1393 21.6934 10.3987 21.1473 9.85262C20.6013 9.30654 19.8606 8.99976 19.0883 8.99976C18.3161 8.99976 17.5754 9.30654 17.0293 9.85262L16 10.882" stroke="white" stroke-width="2" stroke-linecap="round" stroke-linejoin="round"/>
</svg>
