<svg width="32" height="30" viewBox="0 0 32 30" fill="none" xmlns="http://www.w3.org/2000/svg">
<rect width="32" height="30" rx="2" fill="#1B95E0"/>
<path d="M21.8066 10.6743C21.3543 10.8747 20.8685 11.0101 20.3577 11.0713C20.8847 10.7559 21.279 10.2596 21.467 9.6749C20.9718 9.96901 20.4299 10.176 19.8647 10.287C19.4847 9.8812 18.9813 9.61224 18.4328 9.52186C17.8842 9.43148 17.3211 9.52474 16.831 9.78716C16.3409 10.0496 15.9511 10.4665 15.7222 10.9731C15.4932 11.4798 15.438 12.0478 15.565 12.5891C14.5617 12.5387 13.5801 12.2779 12.6841 11.8236C11.7881 11.3694 10.9976 10.7318 10.3639 9.95223C10.1472 10.326 10.0227 10.7593 10.0227 11.2208C10.0224 11.6363 10.1247 12.0454 10.3205 12.4118C10.5163 12.7782 10.7995 13.0907 11.145 13.3214C10.7443 13.3086 10.3525 13.2004 10.0021 13.0056V13.0381C10.002 13.6208 10.2036 14.1856 10.5726 14.6366C10.9415 15.0876 11.4551 15.397 12.0263 15.5124C11.6546 15.613 11.2649 15.6279 10.8866 15.5558C11.0478 16.0571 11.3617 16.4956 11.7844 16.8097C12.2071 17.1238 12.7174 17.2979 13.244 17.3075C12.3501 18.0092 11.2462 18.3898 10.1099 18.3881C9.90858 18.3882 9.70745 18.3764 9.50754 18.3529C10.661 19.0946 12.0037 19.4882 13.375 19.4866C18.0171 19.4866 20.5548 15.6419 20.5548 12.3074C20.5548 12.1991 20.5521 12.0896 20.5472 11.9813C21.0409 11.6243 21.4669 11.1823 21.8055 10.6759L21.8066 10.6743Z" fill="white"/>
</svg>
