<svg width="32" height="30" viewBox="0 0 32 30" fill="none" xmlns="http://www.w3.org/2000/svg">
<rect width="32" height="30" rx="2" fill="#00E676"/>
<g clip-path="url(#clip0)">
<path fill-rule="evenodd" clip-rule="evenodd" d="M18.4331 15.7903C18.2717 15.7096 17.4803 15.3206 17.333 15.2665C17.1857 15.2129 17.0784 15.1863 16.9706 15.3477C16.8634 15.5081 16.5552 15.871 16.4615 15.9782C16.3672 16.086 16.2735 16.099 16.1126 16.0189C15.9517 15.9376 15.4328 15.7681 14.818 15.2199C14.3398 14.7931 14.0164 14.266 13.9227 14.1046C13.829 13.9437 13.9124 13.8565 13.9931 13.7764C14.0657 13.7043 14.154 13.5884 14.2347 13.4947C14.3154 13.4004 14.3419 13.3333 14.3955 13.2255C14.4497 13.1182 14.4226 13.0245 14.382 12.9438C14.3419 12.8631 14.0202 12.0706 13.8858 11.7484C13.7553 11.4347 13.6226 11.4775 13.524 11.4721C13.4298 11.4678 13.3225 11.4667 13.2153 11.4667C13.108 11.4667 12.9336 11.5068 12.7863 11.6682C12.6384 11.8291 12.2229 12.2185 12.2229 13.011C12.2229 13.8029 12.7993 14.5683 12.88 14.6761C12.9607 14.7833 14.0148 16.4094 15.6295 17.1065C16.014 17.2723 16.3136 17.3714 16.547 17.4451C16.9327 17.568 17.2837 17.5507 17.561 17.509C17.8698 17.4629 18.5133 17.1195 18.6476 16.7436C18.7814 16.3677 18.7814 16.0454 18.7413 15.9782C18.7013 15.9111 18.594 15.871 18.4326 15.7903H18.4331ZM15.4962 19.8002H15.494C14.535 19.8004 13.5935 19.5426 12.7684 19.0538L12.5734 18.9379L10.5465 19.4698L11.0876 17.4938L10.9603 17.2912C10.4241 16.4378 10.1404 15.45 10.1418 14.4421C10.1429 11.49 12.5447 9.08823 15.4984 9.08823C16.9284 9.08823 18.2728 9.64615 19.2835 10.658C19.7821 11.1545 20.1772 11.7449 20.4461 12.3951C20.715 13.0452 20.8523 13.7423 20.85 14.4459C20.849 17.3979 18.4472 19.8002 15.4962 19.8002ZM20.0527 9.88936C19.4559 9.28861 18.7458 8.81227 17.9635 8.48796C17.1813 8.16364 16.3425 7.99779 15.4957 8.00002C11.9456 8.00002 9.05525 10.8898 9.05417 14.4415C9.05363 15.5769 9.34992 16.6851 9.91379 17.6617L9 21L12.4147 20.1041C13.3593 20.6188 14.4178 20.8884 15.4935 20.8884H15.4962C19.0463 20.8884 21.9366 17.9986 21.9377 14.4464C21.9403 13.5999 21.7751 12.7613 21.4515 11.9791C21.128 11.1969 20.6525 10.4866 20.0527 9.88936Z" fill="white"/>
</g>
<defs>
<clipPath id="clip0">
<rect width="13" height="13" fill="white" transform="translate(9 8)"/>
</clipPath>
</defs>
</svg>
